<?xml version="1.0" encoding="utf-8"?>
<!-- Generator: Adobe Illustrator 20.0.0, SVG Export Plug-In . SVG Version: 6.00 Build 0)  -->
<svg version="1.1" baseProfile="tiny" xmlns="http://www.w3.org/2000/svg" xmlns:xlink="http://www.w3.org/1999/xlink" x="0px"
	 y="0px" viewBox="0 0 481 363" overflow="scroll" xml:space="preserve">
<g id="ASL">
</g>
<g id="eye">
</g>
<g id="FSL">
</g>
<g id="Layer_4">
	<g>
		<g>
			<path fill-rule="evenodd" fill="#8C4B1F" d="M314.3,18.5c-3.3,3.1,1.3,9.6,3.9,13.3c5.7,8.2,3,30.3,3,36.2
				c-0.1,5.9,7,11.6,9.9,17.4c2.9,5.8,4.3,14,3.4,21c-0.9,7-4.3,25.5-6.1,33.2c-0.6,2.4,14.1,7.3,22.9,9
				c8.2,1.6,12.8,14.2,12.8,14.2s5.2-27.8,5.1-34.4c-0.1-6.7,0-23.7,1.8-28c1.8-4.3,9.8-17.1,11.7-23.7c2-6.6,5-13.4,4.3-17.9
				c-0.8-4.5-2.6-10.6-6.5-8.3c-3.9,2.3-3.8,0.5-3.8,0.5s4-7.8,2.6-10.6c-3.9-7.7-8.3-3.6-8.3-3.6s-0.5-5.3-5-7.8
				c-11.1-6-12,1.4-12,1.4s-3.4-6-9.9-6.7c-11.4-1.2-10.4,10-10.4,10s-2.3-8.7-7.7-12.1C320.6,18.5,319.5,13.6,314.3,18.5z"/>
			<g>
				<path fill-rule="evenodd" d="M385.3,58.6c-2.7,4.9-5.6,10.6-10,11.5c-3.5,0.7-5.1-1.5-5-5.6c2-1.8,4.3-3.1,5.8-5.7
					c2.4-4.1,4.4-8.7,6-13.5c2.6-7.9-1.5-11.5-8-11.5c-0.9,0.1-1.8,0.2-2.7,0.4c0.3,0.6,1.7,0,2.9,0.5c2.9,1.2,6,3.3,6,6.5
					c-0.9,7-5.2,18.7-13.6,23.2c-1,0.6-2.1,0.7-3.1,0.7c-1.5,0.1-4.6-1.8-4.5-4.1c1.9-0.5,4.2-1.4,6.1-5c2.3-4.5,6.4-11.3,6.6-18.1
					c0.1-2.7,0-4.9-0.7-6.8c-0.8-2.2-5.6-5-8-6.1c-2.2-0.9-3.9-1.5-5.4-1.1c-3.3,0.7-4.6,4.7-4.6,4.7c-0.1-1-0.2-4.9-2-5.5
					c-12.3-3.5-18.9-1-18.4,5.1c-0.4-1.8-1-3.9-3.2-6.4c-5.4-5.8-13.5-8.5-19.3-2.1c-1.2,1.4-1.8,6.5,3.8,11.5
					c7.9,6.9,4.7,16.8,4.6,22.3c-0.1,3.1-2.3,7.9-1.7,13.1c2.2,17.8,13.7,16.2,14.5,27.7c0.8,11.5-2.6,34.3-6.2,53.3
					c3.2-9.1,7-26.7,8.3-35.8c0.9-6,0.6-18.2-0.3-22.2c-1.1-5-5.7-9.9-8.7-13.7c-2.4-3.1-4-6-4.8-12c-0.6-4.8,5-17.7,2.1-24.7
					c-1.3-6.3-5.9-8.7-8-11.8c-0.8-1.1-2.5-2.9-1.7-5.2c2.2-6.6,10.8-2.5,11.8-1.8C337.4,31,334.1,46.5,337,51.9
					c1,1.9,6.6,4,9.1,2.8c1.4-0.6,2.5-1.8,3.1-3.2c1.1-2.3,3.2-4.9,3.5-8.1c0.3-3.1,0.5-7.8,0.5-11.1c-0.1-1,0-0.8,0-1.9
					c0.4-2,3.7-5.3,5.5-5.4c1.7,0,7.1,3.4,8.4,4.3c5,5.4,0.1,15.2-2.9,21.7c-1.4,3.1-2.2,7-4.9,8.1c-0.9,0.3-8.7,2.4-9.9-7.8
					c0,0-0.1,0-0.1,0c-0.2,0.9-0.4,1.7-0.6,2.6c-0.5,1.4,1.4,5.7,5.6,6.8c1.6,0.4,3.4,0.3,3.9,0.3c-0.2,3.7,4,5.6,6.4,5.6
					c1.7-0.2,3.4-0.8,4.4-1.4c-0.2,1.3-0.2,1.9,0,3.1c0.4,1.7,0.8,3,3.3,4c0.8,0.3,2.7,0.2,3.6,0C380.3,71,383.6,62.8,385.3,58.6z
					 M349.4,46.6c-1,2.6-1.8,6.4-4.2,6.6c-1.3,0.1-2.9-0.3-3.9-0.7c-5.4-2.4-3.1-4.1-4-9c-0.4-2.3-2.3-8.6-2.3-8.5
					c-0.8-2.2-1.2-3.4-2-5.6c-0.3-0.9,1.4-3.3,2.1-3.8c1.6-1,4.3-1.3,6.4-1.5c1.5-0.1,5.1-0.4,7.5,0.7c1,1.6,1.3,2.8,1.5,4.9
					C350.8,33.6,351,42.5,349.4,46.6z"/>
				<path fill-rule="evenodd" d="M381.5,48.7c6.7,1.3,9.7,8.1,6.6,15.2c-0.9,2.1-2,4.3-2.9,6.7c-1.5,4-1,8.4-2.9,12
					c-1.1,2-2.1,4.6-3.3,6.8c-1.5,2.7-3.5,5.6-4.8,8.8c-0.6,1.6-1.7,11.5-2.1,20.5c-1.2,12-1.6,15.9-4.7,25.6
					c-0.6,1.9,1.9-15.8,2.1-27.7c0-3.4,1-10.5,2-17c1.2-7.4,8.2-14.2,11.1-21.8c0.5-2.6,1.2-5.1,2-7.8c0.8-2.9,6-12.3,0.8-17.7
					c-1.3-1.3-4.5-3.5-5.8-3.3C379.2,49.2,380.1,48.7,381.5,48.7z"/>
			</g>
		</g>
		<path fill-rule="evenodd" fill="#FFFFFF" d="M391.2,49.4c0,0-11.6,22.4-10.2,24.9c9.6,17.5-17.9,78-17.9,78s20.6-15.6,30.5-99.1
			C393.9,50.9,391.2,49.4,391.2,49.4z"/>
		<g>
			<path fill-rule="evenodd" fill="#DB9C94" d="M425.1,43.7c-4.4-2.1-10.7-4.6-14.6-1.5c-3.9,3.1-5.3,4.8-5.3,4.8s-5.9-0.3-9.1,2.5
				c-6.2,5.5-14.1,18.3-12.4,26.8c1.7,8.8,1.7,28.3-3.6,40.3c-18.4,41.5-22.2,48.4-21.8,49.7c1.1,3.7,8.1,4.6,18.3,11.1
				c8.8,5.6,11.3,19.2,13.3,20.7c0,0,13.8-58.4,24.4-71.6c4.9-6.2,15.1-9,18.9-16.3c3.8-7.2,3.6-6.1,7.5-11.6
				c3.8-5.6,9.6-8,6.6-13.3c-2.9-4.9-4.8-5.1-4.8-5.1s5.2-4.9,5.5-9.2c0.4-4.3-6.4-8.7-6.4-8.7s0.8-3.1-3.1-9.8
				c-3.8-6.7-10.8-2.3-10.8-2.3S427.8,45,425.1,43.7z"/>
			<g>
				<path fill-rule="evenodd" d="M391.7,200.3c5.2-13,12.1-53.1,28.3-74.1c2.8-3,11.4-12.6,13.3-14.2c3.3-2.8,4.7-7,7.8-10.4
					c1.7-1.7,3.5-3.9,5.2-5.6c5-5.2,4.2-8.8,1.8-13.4c-0.8-1.6-1.9-3.3-4-3.5c2.9-3.2,7.3-7,5.3-11.1c-0.6-1.3-5.3-7.1-7.6-5.5
					c3.8,1.3,7.5,6.3,6.4,9.6c-1.2,1.5-2.4,3-3.6,4.5c-4,4.1-12.8,11.2-17.5,11.4c-2.7,0.1-10.2-1.4-7.2-6.3c0.9,0,3.9-0.6,8.8-4.2
					c3.9-2.9,13-11.1,14.7-18.8c0.7-3-0.6-7.9-8.3-11.2c-3.4-1-4.3-0.7-7.6,1.3c-0.1,0-0.2-0.2-0.2-0.3c0-0.1,2.4-4.7,0.3-6.3
					c-1.5-1.3-11.7-3.6-14.2-3.6c-2.5,0-4.6,1.7-6.7,4.2c-1.1,1.3-1.4,1.9-1.9,3c-2.2-0.1-4.5-0.8-6.6-0.9c-2.8,0.4-6.4,1.9-8.9,5.4
					c-1,1.4-9.3,18.5-9.7,22.1c-0.5,4.7,1.8,8.9,2.2,13.2c0.9,11.6-3.3,27.2-9.1,40.2c-6.6,14.7-17.4,43.8-17.5,45.4
					c-0.2,3.3,12.9-29.9,19.6-45.5c5.3-12.4,9.2-25,9.5-27.8c0.5-4.9,0.3-8.8-0.4-13.5c-0.4-2.7-1.6-6.4-1.2-10.2
					c0.4-3,4.1-12.1,5.3-14c2-3.3,5.1-10,8.6-11.6c5.4-2.4,9.8-0.5,13.6,0c3.6,0.5,8.6,0.7,10.6,0.5c1.1-0.1,2.5-0.7,3.6-0.5
					c1.7,0.4,2.5,2.8,2.5,3.7c0.6,10.7-10.8,11.5-17.5,11.2c-2.4-0.1-4.6-0.3-6.6-1c-0.3,0.6,0.8,1.5,1.3,1.7
					c-2.5,5.1,2,6.8,5.1,7.1c0.2,1.3,1.5,2.8,2.7,3.2c-0.5,2,0.6,3.9,1.7,4.8c1.5,4.6,1.4,8.9,0.8,17.6c2.4-7,2.3-12.8,1.1-16.1
					c0-0.1,1.8,1.4,3.4,0.9c-1.6,3.4-1.1,7.9,3.7,8.1c0.9,0,2.8-0.1,2.9-0.1c-1,3.2-1.6,8.2,5.5,8.7c5,0.4,9.7-2.9,13.9-7.1
					c-1.5,0.9-3,1.4-4.7,2.2c-2.7,1.3-6.1,3.3-9.1,3.2c-1.3,0-3.9-1.7-4.3-2.6c-0.4-1,0.3-4,1.5-4.9c1.5-0.4,2.9-1.3,4.5-1.8
					c3.2-1.4,7.7-5,10.4-7.7c2.7,0.1,3.4,3.3,4.2,4.9c3.2,6.5-3.5,10.6-8,15.4c-1.5,2.1-2.9,4.3-4.4,6.4
					c-5.1,6.6-13.4,11.6-18.7,17.6c-7.4,8.4-15.5,33.9-16.8,37.2C397.2,168,391.6,200.3,391.7,200.3z M420.5,47.2
					c-3-0.1-6-0.2-9-0.2c0.2-0.6,0.4-1.3,0.6-2c0-0.1,0-0.2,0-0.4c-0.1-0.1-0.2-0.1-0.3-0.2c-0.8,0.4-1.1,1.5-1.5,2.5
					c-1.3-0.3-2.7-0.5-4-0.8c1.2-1.9,2.8-3.8,4.3-5c3.7-2.5,14.1,1.1,15.5,2.7c0.7,0.8-0.1,2.2-0.6,3.3
					C423.9,46.3,422.1,47.2,420.5,47.2z M405.3,67.9c-0.3-0.3-0.9-1.4,0.1-3.3c3.6,1.6,7.9,1.2,11.2,0.7c0,0.7-1.7,2.2-2.3,2.6
					C409.8,70.2,407.8,70.2,405.3,67.9z M412.4,73.3c-0.9-0.2-1.7-1-1.9-2.3c1.6-0.6,2.8-0.8,4.2-2.4
					C413.3,70.5,412.4,73.2,412.4,73.3z M419.2,79.8c-6.4-2.1-6.6-7.9-2.1-12.3c1.9-1.8,4.4-2.4,6.3-3.3c4-1.9,6.6-6.9,6.4-11.1
					c-0.1-0.9-0.9-2.4-1.8-3.5c0-0.1,4.9-1.7,6.3-0.8c3.9,2.4,8.2,5.5,6.4,11.9c-1.5,5.2-8.7,11.4-11.7,14
					C425.7,77.5,423.4,81.1,419.2,79.8z M427.6,89c0.1,0,0.1-0.1,0.2-0.1C427.7,89,427.8,89,427.6,89z"/>
			</g>
		</g>
		<path fill-rule="evenodd" fill="#FFFFFF" d="M396.7,123c-1.5-0.7-11.5-4.3-13.3-3.4c-1.7,0.9-4.3,3.9-3.8,5.9
			c0.4,2,13.1,14.8,13.6,17.2c0.5,2.3,2.8,18.7,3.4,21.1c0.6,2.4,4.9,6.9,4.9,6.9l7.6-30.3C409.2,140.3,401,124.8,396.7,123z"/>
		<g>
			<path fill-rule="evenodd" fill="#513724" d="M465.1,83.9c-4.7,0.7-21.5,21.7-24,27.4c-2.5,5.8-13.4,27.4-16.7,31.2
				c-12.3,14-17.4-7.3-21.9-13.3c-4.5-6-14.1-8.7-14.1-8.7s-7.5-0.1-8.4,3.6c-0.7,2.9,1.9,3,5.7,8.6c1.3,2,7.1,7.1,8.4,10.5
				c2.8,7.4-0.5,13.8,5.1,20.4c5.2,6.3,11.4,16.1,9.5,23.3c-1.9,7.2-9.6,15.4-12.3,20.7c-2.8,5.3-15.5,18.1-12.6,20.8
				c3,2.7,5.8,7.7,16.6,6.2c10.8-1.5,13.3-0.5,21.1-1.3c3.6-0.4,8.5-7.4,8.5-7.4s6.5-14.8,8.8-19.9c2.3-5.1,19.2-12.3,22.9-20.3
				c3.8-8.1,16-16.6,14.1-25.2c-2.6-11.5-9-4.5-9-4.5s1.4-8.1-0.8-11.7c-4.7-7.7-10.5-0.4-10.5-0.4s6.3-5.2,1.4-11.3
				c-4.8-6.1-11.2-5-11.2-5s9.7-15.4,14.4-21.9c4.8-6.5,9.6-15.4,9.2-18.3C468.8,84.5,468.9,83.4,465.1,83.9z"/>
			<g>
				<path fill-rule="evenodd" d="M428.4,234c3.9-7.4,8.9-17.2,8.9-17c1.9-5.8,3.3-7.4,7.3-12c4-4.5,9.3-7.4,13.6-11.5
					c2.8-2.8,9.4-11.3,10.7-12.6c8.1-8.2,9.6-19.6,9.5-21.3c-0.2-2.7-4.2-6-6.3-7.2c-1.4-0.7-2.8-0.7-4.5-0.2
					c0.6-0.9,1.3-2.4,1.6-3.5c1.5-6-3.7-9.9-9-9.8c-0.4-5-1.8-7.5-4.2-9.7c-1.3-1.2-3-2.5-5.3-2.2c-0.5-0.7-0.5-1-0.4-1.6
					c0.2-1.6,0.7-1.9,1.9-4.1c1.1-2.3,6.4-10.3,7.7-12.2c0.9-1.5,17.6-23.2,6.1-26.4c-0.2,0.3-4.7-4-15.3,9.7
					c-3.5,5-7.1,10.9-10.6,15.9c-6.2,9.4-13,24.5-15.9,28.2c-2.6,3.4-5.5,5.9-8.9,6.6c-1.2,0.3-4.4-1.3-5.3-2.9
					c-0.9-1.7-2.1-5.6-3-7.1c-2-3.7-3.2-5.7-6.4-9.2c-1.4-1.5-5.4-4.3-8-4.8c-2.5-0.5-4.8-1-7-1c-5,0-7.9,5.5-7.4,7
					c1.2,4.1,9.4,12,10.7,13.6c3.6,5,5.2,13,5.8,18.8c0.3,3.2,0.1,7.3,1.6,10.2c1.9,3.6,8.6,8.7,9.2,12.4c0.8,5.3-2.5,10.3-6.4,16
					c-5.7,7.5-14.9,23.3-18.3,30.9c10.6-12.3,7.8-11.6,14.6-19.7c6.6-8.5,14.4-19.7,14-26.6c-0.3-5.8-7.9-10.6-11.4-16.7
					c-0.9-1.6-0.8-3.8-1-5.6c-0.5-1.7,0.1-3.6-0.4-5.3c-0.6-5.2-2.1-10.8-5.9-15.1c-2.2-2.6-9.7-10-10.3-11.6
					c-0.5-1.3-0.1-3.9,1.2-4.7c5.8-3.7,13.8,0.8,18.8,6.2c2,2.1,4,5.3,5.2,7.8c2.5,5.3,6.2,14.5,12.2,10.3
					c13.6-9.4,16.8-24.7,23.6-36.4c3.9-6.6,12.8-18.4,15.6-20.6c2.3-1.8,5.4-3.7,8.3-3.3c8.5,3.4-9.5,24.9-11.8,28.9
					c-0.6,1-3.6,7.1-4.2,8.2c-2.1,4.2-0.7,4.5-0.3,4.8c-5.1,2.6-9.1,9.8-9.6,11.1c-1.4,2.8-4.8,12.4-5.2,14.6
					c-0.5,3.2-0.9,6,2.8,8.1c1.4,0.8,2.8,1.1,4,1.1c0,0,0.1,0,0.1,0c-2.2,3.2-2.7,4.8-0.9,7.7c2.7,4.3,7.5,5.3,10.5,2.6
					c0.7,3.9,4.7,6.6,8.8,5c1.1-0.4,3.4-2.4,4.6-3.9c2.5-3.2,6.8-8.5,6.8-8.6c-1.6,1.7-3.3,3.2-4.8,4.8c-2,2-4.6,4.7-6.8,5.5
					c-2,0.6-5.1,0.6-7.4-4.2c1.1-1.6,3.1-3.3,4.3-4.7c1-0.8,9.1-10.9,10.7-13.9c3.7-0.4,8.1,3.8,8.7,7.1c0.2,1.3-0.9,3.4-1.3,4.8
					c-0.6,2.3-2.5,7.8-4.3,9.9c-2.2,2.3-4.1,5.1-6.3,7.4c-2.8,3.3-4.5,6.5-7.3,9.2c-4.5,4.3-10.4,7.1-14.4,12
					c-4.1,5.1-5.7,9.9-8.3,15.9C427.5,234.4,430.2,227.1,428.4,234z M439.3,159.6c-5.3-2.5-1.2-9.7-0.9-11.1
					c0.8-2.6,3.8-9.4,7.6-14.7c1.8-2.6,4.6-6.8,6.9-5.3c4.6,3,5.9,6,4.3,10.8c-0.7,2-1.8,4.1-2.9,6.1c-1.3,2.3-2.3,4.6-4,6.9
					C446.1,157.8,442.8,161.2,439.3,159.6z M456.8,163c-2.2,2.5-6.6,9.4-9.9,8.7c-4.7-1.8-6.7-8.2-4.9-9c2.4-1.1,3.9-2.3,6.3-4.7
					c2.6-2.8,6.5-7.6,9-12.4c0.9-1.8,1.8-3.6,2.5-5.5c2.1-0.7,7.1,2.7,6.6,7.6C464.2,154,460.3,159.1,456.8,163z"/>
			</g>
		</g>
	</g>
	<g>
		<g>
			<path fill-rule="evenodd" fill="#BA8019" d="M297.8,108.4c1.1-3.2-0.2-7.2-9.9-15.9c-3.1-2.8-19.6-8.5-27.7-7.7
				c-7.3,0.8-10.1-1.2-13,11.2c-3,12.9,11.8,21.6,15.2,23.6c8.7,5.1,22.7,2.5,22.7,2.5S294.3,119.1,297.8,108.4z M278.2,117.6
				c-1.1-1-5.8-11.8-4.4-13.5c1.4-1.7,10.9-4.1,12.2-3c1.3,1.1,5.8,8.7,5.7,10.8C291.4,116.9,280.2,119.4,278.2,117.6z"/>
			<path fill-rule="evenodd" fill="#231F20" d="M266.7,84.3c-24.6-3.9-38.5,9.1-45.4,20.7c-1.1,1.8-1.7,1.9-1.6,2.1
				c0,0.1,1.8-0.8,2.7-1.9c6-7.2,18-23.1,44.4-18.6c38.6,6.5,33.9,35.1,34.5,34.9C303.9,120.4,308.7,91,266.7,84.3z"/>
			<path fill-rule="evenodd" fill="#231F20" d="M299.3,105c0,0-6.4,23.2-29.3,17.2c-22.1-5.8-24.8-25.5-19.6-35.1
				c0.4-0.8-9.8,10.4-1.6,24c6.6,11,23,15.1,31.3,13.5C292.1,122.4,298.9,116.4,299.3,105z"/>
			<path fill-rule="evenodd" fill="#231F20" d="M268.7,94.8c-4.1,2.1-9.9,10.2-0.9,22c5.4,7,15.7,6.2,21.1,1.5
				c4.6-4.1,8.6-9.6,4.4-16.7C287.7,92,279,89.5,268.7,94.8z M286.3,106c1.5,0.5,3.4,2.4,3.6,4.1c0.4,4-5.6,9-8.7,2
				C279.9,109.3,282.7,104.8,286.3,106z"/>
			<path fill-rule="evenodd" fill="#231F20" d="M261.6,56.3c-14-0.1-28.2,5.7-27.1,5c6-4.1,19.5-8.4,26.6-8.7
				c6.9-0.3,16.8,0.9,24.1,3.1c21.5,6.3,28.1,25.3,28.1,25.3s-6.4-16.7-28.8-21.4C278.2,58.3,267.1,56.4,261.6,56.3z"/>
		</g>
		<g>
			<path fill-rule="evenodd" fill="#FFFFFF" d="M282.7,124.3c0,0-1.2,4.3-13.2,1c-10-2.8-33.5-13.2-33.5-13.2s0.3-2.5,10.1,2
				C258.2,119.6,282.7,124.3,282.7,124.3z"/>
			<path fill-rule="evenodd" fill="#231F20" d="M228.4,109.8c9.4,0.1,13.2,0.5,18.9,4c24.7,14.8,39.4,10.8,39.4,10.8
				s-20.8-2.3-39.8-13.2C237.5,106.1,228.4,109.8,228.4,109.8z"/>
		</g>
	</g>
	<g>
		<g>
			<path fill-rule="evenodd" fill="#513724" d="M180.3,157.1c2.8,1.8,14.6-1.3,23-7.7c11.1-8.4,15.8-4.4,13.8-8.8
				c-2.2-4.9-14.9-30.7-13.9-37.2c1-6.5,6.5-5.5,6.8-12.7c0.3-7,1.3-8.8,3.1-14.3c1.9-5.7,6.4-10.7,3.2-12.2
				c-3.2-1.5-4.3,0.8-5.3-1.4c-0.9-2.1,1.7-8.4-0.9-8.9c-2.9-0.6-9.6,3.9-10.5,7.4c-1,3.8,0.3,6.8,0.3,6.8s-1.9-2.1-5.6-3.8
				c-3.7-1.7-7.8-4-7.2-5.7c1.7-4.6,2.8-8.8,2.8-8.8s9.8,6.3,13.8-0.3c2.3-3.8-0.2-4.9-2.7-6.9c-3.1-2.4-2.8-11-13.7-7.9
				c-5.3,1.5-11.3,18.8-11.3,18.8s-8.4-10.3-9.3-16.3c-0.9-6-0.6-22.7-2.6-24.9c-2.1-2.3-9.2-2.6-8.5,1.9c0.6,4.4-2.8,17.4-2,23.7
				c1.1,9.4,3.9,20.2,3.9,20.2s-8-10.1-8.9-14c-0.8-3.9-2.5-17-6-18.6c-3.7-1.8-8.3-2.5-8.4,2.2c-0.1,4.7,3.5,10.8,3.5,16.8
				c0,6.9,5.7,24.8,5.7,24.8s-8.7-6.3-12.2-10.4c-2.5-2.9-7.5-8.6-11.6-3.3c-4.8,6.3,4.6,7.2,8.6,14.3c6,10.9,12,12.5,18,18.6
				c6.1,6.2,4.9,16.1,10.3,21.8c5.4,5.6,8,6.1,12,13.3C172.5,130.7,178,155.7,180.3,157.1z"/>
			<g>
				<path fill-rule="evenodd" fill="#231F20" d="M155,9.9c0.7-0.8,2.3-2,3.6-2.2c13.6-2.7,10.5,18.1,9.9,25.9
					c-0.3,3.6,0.7,7.6,2.5,10.5c0.8,1.4,1.8,2.8,2.7,4.1c0.4,0.6,4.4,5.3,4.8,5.4c-0.2-0.1-2-1.2-2.2-1.2c-2-0.9-3.5-2.8-5.1-4.8
					c-6.7-8.3-3.6-18.7-5.1-28.6c-0.4-2.6-0.2-6.8-2.8-8.2c-1.6-0.8-4.9-0.5-6.3,1.1c-1.8,2.1-0.9,6.7-1,9.1
					c-0.1,1.1-1.2,11.9-2.1,16.1c-0.9,4.2,2.3,19.5,2.1,19.6c-0.2-0.5-4.2-14.2-3.8-20.4c0-5.7,2.1-14.8,1.8-19.3
					C153.9,14.7,153.5,11.7,155,9.9z"/>
				<path fill-rule="evenodd" fill="#231F20" d="M137,21c2.6-0.3,5.9,0.3,7.9,2.3c2.3,2.3,2.8,6.6,4,9.8c1.4,3.3,1.6,6.7,2.4,10.2
					c0.9,4.2,4.4,9.1,6.3,13c2.7,5.3,4.8,3.6,7.3,7.1c-4.2-0.8-8.7-5.5-11.4-10.5c-1.4-2.6-3.7-6.1-4.3-9.1c-0.6-2.7-1-6.9-2.2-9.4
					c-1.4-2.7-1.9-5.6-3.2-8.3c-3.2-4-7.3-3-9.8-0.9c-2.8,4,2.3,6.1,2.9,14.9c0.2,3.1,0.5,14.5,4.3,21c0.6,1,2.3,5.3,2.6,6.5
					c0.9,4.1-6.4-9.8-7.8-18.5c-0.5-3.6-1.4-9.6-2-14c-0.4-2.8-3.2-5.6-2.8-9.1C131.5,23.2,135.8,21.1,137,21z"/>
				<path fill-rule="evenodd" fill="#231F20" d="M187.8,31.2c2.3-0.8,4.4-0.2,5.2-0.1c1.9,0.2,3.9,0.8,5.3,2c2.2,1.9,2.3,5,3.7,7.4
					c1.1,2,3.6,2.8,4.7,4.8c1,1.9,1.4,4.7,0.1,6.5c-1.5,2-6.6,4.3-9,4.3c-3.3,0-6.4-3.4-6.6-2.7c-1.6,3.2-3,4.1-1.2,5.6
					c1.9,1.5,7.5,4.4,7.8,7.2c-1-1.4-6.6-3.5-7.8-4.4c-4.2-2.8-2.4-5.2-0.3-10.5c0.9-2.3-1.2-3.3-0.2-6.2c0.2,0,0.7,4.8,2.5,6.1
					c6.5,4.6,12.2,0.8,12.9-3c0.6-2.9-4-5.2-4.8-7.8c-1.1-3.4-1.6-5.4-5.5-6.1c-3.1-0.6-5.5-1.5-8.4,0.5c-4.2,3-8.4,16.2-10.6,16.7
					c1.2-2.9,4.2-11.2,4.9-12.7C181.2,37.3,182.7,32.9,187.8,31.2z"/>
				<path fill-rule="evenodd" fill="#231F20" d="M200.9,54.4c4.3-2.3,8-3.7,10.2-1.6c1.8,1.1,0.2,5.8,0.9,6.3c2.3,2,6.5,1.5,6.7,7.1
					c0.5,5-3.7,8.8-5.1,13.5c-1.4,4.7-1.7,9.3-3.1,14c-2.1,3.6-3.6,3.6-5.6,6.9c-1.6,1.6,15.6,41.1,17.3,46.6
					c-1.5-0.4-12.9-25-17.8-37.3c-1-2.4-2-8.7-1.4-10.8c1.2-4,3.8-2.1,6.7-10.1c1.8-5.1,1-6.5,2.3-11.6c1.7-6.4,6.9-10.9,1-15.8
					c-0.6,0.9-0.9,1.4-1.2,2.9c-0.6-1.3-1.9-1.6-1.8-4.7c0.5-1.3,0.4-2.9-0.3-4.7c-0.6,0.1-1.1,0.2-1.7,0.3
					c-1.4-0.1-3.7,0.7-5.6,1.6c-1.8,1.3-3.9,3.9-3.5,5.7c0,6.6,4.6,5.8,6.2,8.6c-1.5,0.9-8.4-1.2-9-9
					C195.8,60.8,197.7,57,200.9,54.4z"/>
				<path fill-rule="evenodd" fill="#231F20" d="M152.2,70.9c-1.5-0.1-3-0.5-4.5-1.1c-2.9-1.1-6.2-3.3-8.1-5.7
					c-4.2-5.3-14.3-20.1-22.7-10.9c-0.8,0.9-1.3,2.6-1.3,3.4c0,2,2.1,3.6,3.5,5c2.9,2.7,6.8,9.6,10.2,13.2
					c6.4,8.5,15.8,10.9,23.4,31.4c2.9,7.9,7.5,8.9,11.2,15c4.9,8.1,12.3,33.9,15,36c-1.2-4.6-10.4-35.8-15.7-41.1
					c-1.3-1.3-5.7-4.3-7.4-8c-1.1-2.4-3.7-9.7-4.8-12.3c-1.6-3.7-3.7-7.6-7-10.4c0,0-0.6-0.3-0.6-0.3c-0.3-0.3-10.7-7.9-12.3-10.7
					c-1.8-3.1-7.4-10.5-8.1-11.3c-1.3-1.6-4.8-3.9-4.7-6.3c0.1-1.8,2.3-3.8,4-4.2c2.7-0.6,5.1,2.2,6.9,3.6c7,5.4,10.6,13.5,20.4,15
					C151.9,71.6,152.6,70.9,152.2,70.9z"/>
			</g>
		</g>
		<g>
			<path fill-rule="evenodd" fill="#DB9C94" d="M78.6,67c-3.8,2.9-9.3,6.5-8.4,11.4c0.9,4.8,1.7,6.8,1.7,6.8s-1.9,4.8-1.3,9
				c1.4,10.3,9.2,20.2,17.4,22.7c8.4,2.6,24.8,12.2,32.7,22.3c27.5,35.2,40,46.3,41.1,45.7c3.7-2.1,7-8,15.4-17
				c7-7.5,13.5-5.6,21.1-13c0,0-46.6-25.4-53.2-40.8c-3.1-7.2-0.9-17.3-5.4-23.9c-4.5-6.6-2.9-5.8-6-11.7c-3.1-5.9-1-11.8-8.5-12.5
				c-5.8-0.5-7.4,2.3-7.4,2.3s-1.9-6.8-5.5-9.1c-3.6-2.3-10.6,1.5-10.6,1.5s-2.3-2.1-9.9-1.9c-7.6,0.2-7,8.4-7,8.4
				S80.9,65.2,78.6,67z"/>
			<g>
				<path fill-rule="evenodd" d="M207.1,158.5c-8.9-10.5-48.8-25.7-59.5-49.5c-1.3-3.9-5.7-15.8-6.2-18.2c-0.9-4.1-3.9-7.3-5.4-11.6
					c-0.7-2.3-1.8-4.8-2.4-7.1c-2.2-6.7-5.7-7.7-10.9-7.8c-1.8,0-3.7,0.1-4.9,1.9c-1.5-4-2.7-9.5-7.2-9.8c-1.5-0.1-8.6,1.4-8.3,4.1
					c2.9-2.7,9-3.6,11.4-1.1c0.7,1.7,1.5,3.5,2.2,5.2c1.8,5.4,3.8,16.3,1.8,20.5c-1.2,2.4-6,8.2-8.8,3.3c0.4-0.8,1.3-3.7,0.4-9.5
					c-0.7-4.8-3.6-16.4-9.5-21.5c-2.3-2-7.1-3.1-13.6,2c-2.4,2.5-2.6,3.5-2.4,7.2c0,0.1-0.3,0.1-0.3,0.1c-0.1,0-2.9-4.3-5.3-3.2
					c-1.8,0.7-8.5,8.5-9.7,10.6c-1.1,2.2-0.6,4.7,0.5,7.8c0.6,1.6,1,2,1.7,3c-1.1,1.8-2.8,3.5-3.8,5.3c-1,2.6-1.3,6.4,0.6,10.2
					c0.8,1.5,11.8,16.6,14.7,18.6c3.8,2.6,8.6,2.5,12.5,4.2c10.5,4.6,23.1,14.3,31.7,25.4c9.8,12.6,29.7,36.5,31,37.3
					c2.7,1.7-19.5-26.5-30-39.5c-8.3-10.3-18.6-18-20.9-19.6c-4-2.7-7.5-4.3-11.9-5.9c-2.5-0.9-6.3-1.5-9.4-3.7
					c-2.5-1.7-8.6-9.2-9.8-11.1c-1.9-3.3-6.4-9-6.1-12.8c0.4-5.8,4.1-8.8,6.3-11.8c2.1-2.9,4.6-7.1,5.4-8.9c0.4-1,0.6-2.5,1.3-3.3
					c1.1-1.3,3.6-0.8,4.4-0.5c9.6,4.4,5,14.7,1.6,20.4c-1.2,2-2.4,3.8-3.9,5.2c0.4,0.5,1.7,0,2.1-0.3c3.3,4.5,6.8,1.4,8.5-1.1
					c1.2,0.5,3.1,0,4.1-0.8c1.5,1.4,3.7,1.2,4.9,0.7c4.7,0.8,8.4,2.9,15.7,7.5c-5-5.4-10.1-7.9-13.5-8.4c-0.1,0,2-0.9,2.3-2.6
					c2.2,2.9,6.3,4.6,8.8,0.6c0.5-0.8,1.2-2.4,1.3-2.6c2.3,2.4,6.4,5.2,10.2-0.8c2.6-4.1,1.9-9.7,0.3-15.4c0.1,1.7-0.2,3.3-0.3,5.1
					c-0.1,3,0,6.8-1.4,9.4c-0.7,1.2-3.3,2.6-4.2,2.5c-1-0.1-3.4-2.1-3.6-3.5c0.3-1.5,0.2-3.2,0.5-4.7c0.2-3.4-0.8-9-1.9-12.6
					c1.3-2.4,4.4-1.4,6.2-1.4c7.1,0.2,7.6,8,9.7,14.1c1.2,2.3,2.4,4.5,3.5,6.8c3.3,7.5,3.9,17,6.7,24.4
					c3.9,10.3,25.9,24.9,28.2,27.6C176.9,143.9,207.1,158.6,207.1,158.5z M79.1,72c-1.5,2.6-2.9,5.1-4.3,7.7c-0.5-0.5-0.9-1-1.4-1.5
					c-0.1,0-0.2-0.1-0.3-0.2c-0.1,0.1-0.2,0.1-0.3,0.2c0,0.9,0.8,1.6,1.5,2.4c-0.8,1-1.7,2.1-2.5,3.1c-1.1-2-2-4.2-2.3-6
					C69,73.4,76.9,66,79,65.5c1.1-0.2,1.9,1.1,2.6,2C79.9,68.6,79.8,70.6,79.1,72z M90.1,94.8c-0.4,0.1-1.7,0.2-2.9-1.6
					c3.1-2.4,4.7-6.3,5.8-9.4c0.6,0.3,1.1,2.5,1.1,3.2C94.1,92,93.2,93.7,90.1,94.8z M98,91.1c-0.6,0.7-1.6,1-2.8,0.6
					c0.3-1.7,0.6-2.8-0.1-4.8C96,89,97.9,91,98,91.1z M106.8,88.1c-4.8,4.6-9.9,2.1-11.7-3.8c-0.7-2.5-0.1-4.9,0-7
					c0.2-4.3-2.9-8.9-6.7-10.7c-0.9-0.4-2.5-0.3-3.9-0.1c-0.1,0,0.8-5,2.2-5.8c3.9-2.2,8.6-4.6,13.3,0c3.8,3.7,5.9,12.8,6.8,16.6
					C107.8,81.5,109.9,85.1,106.8,88.1z M118.7,85.2c0-0.1,0-0.1,0-0.2C118.7,85.1,118.8,85,118.7,85.2z"/>
			</g>
		</g>
	</g>
	<g>
		<path fill-rule="evenodd" fill="#BA8019" d="M266.9,151.1c0,0,33.5,32.1,54.7,52.7c21.2,20.5,34,43.4,35.6,46.9
			c1.6,3.5,5.4,46.2,6.5,64.4c1.1,18.3-0.5,44.3-0.5,44.3s-23.6,3.7-31-1.7c-7.4-5.4-3.8-40.9-3.5-53.1c0.4-12.1,8.2-30.3-2.4-33.1
			c-15-3.9-61.3-5.2-64.7,0.1c-11.5,17.9-11.6,78.7-11.7,82.2c-0.1,3.5-29.4,1-38.6-1c-9.2-2-40.5,5-42.1,1.5
			c-1.6-3.5-1.2-100.8,0.7-107.7c1.9-6.9,35.6-39,48.5-49.1C231.4,187.5,263.5,151.9,266.9,151.1z"/>
		<g>
			<path fill-rule="evenodd" d="M197.5,202.4c18.1-16.5,62.7-52.5,68-58l1.5-2c0,0,52.8,48.3,62.2,58.8c44.9,50,60,85,58.2,82.5
				c-23.4-31.9-32-41.1-56.8-69.2c-21.1-24-63.7-67.2-63.7-67.2s-42.4,39.5-60.4,57.9c-20.7,21.1-67.6,68.6-67.6,68.6
				S182.5,216.2,197.5,202.4z"/>
			<path fill-rule="evenodd" d="M322.7,276.8c0,0-27.2-10-38.2-8.1c-10.9,1.8-24.6,7.9-24.6,7.9s-9.7,23.9-8.8,38.2
				c0.9,14.2,3.2,44.2,3.2,44.2s1-33.4,2.7-46.9c1.7-13.5,4.1-31.2,4.1-31.2s16.9-7.4,23.9-7.2c7,0.2,31.9,3.7,31.9,3.7
				s5.7,24.3,6.6,37.1c0.9,12.8-0.2,49.1-0.2,49.1s7.1-34.6,5.3-49.6C325.5,287.6,322.7,276.8,322.7,276.8z"/>
			<path fill-rule="evenodd" d="M362.2,253.5c0,0,6.4,41,5.9,56.6c-0.5,15.6-1.6,53.8-1.6,53.8s-4.1-30.5-4.3-53.1
				C362,288.2,362.2,253.5,362.2,253.5z"/>
			<path fill-rule="evenodd" d="M164.6,357.4c0,0,5.3-31.2,4.4-53.8c-1-22.6-3.2-57.2-3.2-57.2"/>
		</g>
	</g>
	<g>
		<path fill-rule="evenodd" fill="#8C4B1F" d="M5.2,121.3c0.3,4.9,20.2,23.9,25.9,27c5.7,3.1,26.8,16.1,30.4,19.9
			c13.2,13.8-9,17.2-15.5,21.2c-6.5,4-10.1,13.6-10.1,13.6s-0.8,7.7,2.9,8.9c2.9,1,3.2-1.7,9.3-5c2.2-1.2,8.3-8.5,11.9-9.6
			c7.8-2.2,15.3,3.9,22.6-1.1c6.9-4.7,15.8-10.6,23-8c7.2,2.6,14.9,11.2,20.1,14.5c5.2,3.3,20.3,21.8,23.6,19.4
			c1.8-1.3,11.1,0,13.6-10c6.8-27.2,11.6-22.4,10.8-24.8C172.5,183.7,148,169,148,169s-14.8-8.7-19.7-11.5
			c-5-2.8-11.4-19.2-19.3-23.8c-7.9-4.6-15.5-17.8-24.5-16.6c-12,1.6-7.9,8.2-7.9,8.2s-5.7-1.6-9.5,0.4c-8.2,4.1-1.3,10.7-1.3,10.7
			s-4.7-6.9-11.4-2.5c-6.7,4.4-6.8,9.6-6.8,9.6s-14.1-9.8-20.3-15.3c-6.2-5.5-14.9-11.2-17.9-11C6.1,117.5,4.9,117.4,5.2,121.3z"/>
		<g>
			<path fill-rule="evenodd" d="M172.1,184c-7.2-4.6-33.5-22.5-33.4-22.6c-5.7-2.4-7.2-4-11.6-8.6c-4.2-4.4-6.7-10.1-10.6-14.9
				c-2.6-3.2-10.7-10.6-12-12.1c-7.7-9-19.2-11.5-21-11.6c-2.7,0-6.5,3.7-7.9,5.8c-0.8,1.4-1,2.8-0.6,4.6c-0.9-0.7-2.4-1.5-3.4-1.9
				c-6-2.1-10.4,2.9-10.8,8.4c-5.2-0.1-7.9,1.2-10.3,3.4c-1.3,1.2-2.8,2.8-2.7,5.3c-0.7,0.4-1,0.4-1.7,0.2c-1.6-0.3-1.9-0.9-4-2.3
				c-2.3-1.4-9.9-7.5-11.7-8.9c-1.5-1.1-22.1-20.1-26.5-8.6c0.3,0.2-4.5,4.4,8.6,16.5c4.8,4.1,10.5,8.2,15.3,12.3
				c9.1,7.1,23.9,15.4,27.5,18.7c3.3,3,5.5,6.1,5.9,9.7c0.1,1.3-1.7,4.4-3.5,5.2c-1.8,0.8-5.9,1.7-7.6,2.4c-3.9,1.7-6.1,2.8-10,5.7
				c-1.7,1.3-4.8,5.1-5.7,7.8c-0.7,2.5-1.5,4.8-1.7,7c-0.5,5.1,4.9,8.6,6.5,8.2c4.3-0.9,13.1-8.5,14.9-9.8
				c5.4-3.3,13.7-4.1,19.7-4.2c3.3,0,7.5,0.6,10.6-0.8c3.9-1.7,9.7-8,13.5-8.3c5.4-0.4,10.3,3.4,15.8,7.9c7.1,6.5,25,19.6,32.5,23.8
				c-11.7-11.9-13.8-11.3-21.4-19c-8.1-7.4-18.9-16.5-26-16.7c-5.9-0.2-11.6,7.2-18.1,10.1c-1.7,0.8-4,0.4-5.9,0.6
				c-1.8,0.3-3.7-0.4-5.5-0.1c-5.4,0.2-11.2,1.2-16,4.6c-2.8,2.1-11.1,9-12.7,9.5c-1.4,0.4-4-0.3-4.7-1.6c-3.3-6.2,2.1-14,8-18.7
				c2.3-1.9,5.8-3.6,8.5-4.6c5.6-2.1,15.4-5,11.6-11.6c-8.4-14.7-23.8-19.3-35.1-27.4c-6.4-4.5-17.6-14.7-19.7-17.8
				c-1.6-2.5-3.3-5.8-2.7-8.8c4.2-8.4,24.6,12,28.5,14.6c1,0.7,7,4.3,8,5c4.1,2.5,4.6,1.2,4.9,0.7c2.2,5.4,9.2,10.2,10.5,10.8
				c2.8,1.7,12.2,6,14.5,6.6c3.2,0.8,6,1.4,8.6-2.1c1-1.4,1.4-2.8,1.5-4c0,0,0-0.1,0.1-0.1c3.1,2.6,4.6,3.2,7.8,1.6
				c4.6-2.4,6-7.2,3.6-10.5c4.1-0.4,7.2-4.2,5.9-8.5c-0.3-1.1-2.1-3.7-3.6-5.1c-3-2.8-8.1-7.7-8.2-7.7c1.6,1.7,2.9,3.6,4.5,5.4
				c1.9,2.2,4.4,5.1,5.1,7.4c0.4,2.1,0.1,5.3-5,7.2c-1.5-1.3-3.1-3.4-4.4-4.8c-0.7-1.1-10.4-10.2-13.3-12.2c-0.1-3.8,4.6-8,8-8.3
				c1.3-0.1,3.4,1.3,4.8,1.8c2.3,0.8,7.7,3.2,9.7,5.3c2.2,2.4,4.8,4.6,7,7c3.2,3.2,6.2,5.2,8.7,8.3c4,5,6.4,11.2,11,15.7
				c4.9,4.7,9.6,6.7,15.6,9.9C155.6,173,165.1,181.6,172.1,184z M80.2,154.3c-3,5.1-10,0.3-11.4-0.1c-2.5-1.1-9.2-4.7-14.3-9
				c-2.5-2.1-6.5-5.3-4.8-7.5c3.4-4.4,6.6-5.6,11.5-3.4c2,0.9,4,2.3,5.9,3.5c2.3,1.5,4.5,2.7,6.7,4.7C79,147.3,82.2,151,80.2,154.3z
				 M85.3,136.8c2.4,2.5,9,7.6,8,10.8c-2.2,4.7-9,6.2-9.7,4.2c-0.9-2.6-2-4.2-4.3-6.9c-2.6-3-7.2-7.3-11.9-10.3
				c-1.8-1.1-3.6-2.1-5.4-3c-0.6-2.1,3.4-7,8.4-6C76.7,128.4,81.6,132.9,85.3,136.8z"/>
		</g>
	</g>
</g>
</svg>
